<?xml version="1.0" encoding="utf-8" standalone="no"?>
<!DOCTYPE svg PUBLIC "-//W3C//DTD SVG 1.1//EN"
  "http://www.w3.org/Graphics/SVG/1.1/DTD/svg11.dtd">
<svg xmlns:xlink="http://www.w3.org/1999/xlink" width="795.65pt" height="504.22375pt" viewBox="0 0 795.65 504.22375" xmlns="http://www.w3.org/2000/svg" version="1.1">
 <metadata>
  <rdf:RDF xmlns:dc="http://purl.org/dc/elements/1.1/" xmlns:cc="http://creativecommons.org/ns#" xmlns:rdf="http://www.w3.org/1999/02/22-rdf-syntax-ns#">
   <cc:Work>
    <dc:type rdf:resource="http://purl.org/dc/dcmitype/StillImage"/>
    <dc:date>2026-09-18T18:48:13.395237</dc:date>
    <dc:format>image/svg+xml</dc:format>
    <dc:creator>
     <cc:Agent>
      <dc:title>Matplotlib v3.10.6, https://matplotlib.org/</dc:title>
     </cc:Agent>
    </dc:creator>
   </cc:Work>
  </rdf:RDF>
 </metadata>
 <defs>
  <style type="text/css">*{stroke-linejoin: round; stroke-linecap: butt}</style>
 </defs>
 <g id="figure_1">
  <g id="patch_1">
   <path d="M 0 504.22375 
L 795.65 504.22375 
L 795.65 0 
L 0 0 
z
" style="fill: #0b1525"/>
  </g>
  <g id="axes_1">
   <g id="patch_2">
    <path d="M 46.85 425.16 
L 781.25 425.16 
L 781.25 97.56 
L 46.85 97.56 
z
" style="fill: #111f33"/>
   </g>
   <g id="matplotlib.axis_1">
    <g id="xtick_1">
     <g id="line2d_1"/>
     <g id="text_1">
      <text style="font-size: 10px; font-family: 'DejaVu Sans'; text-anchor: middle; fill: #9fb0c7" x="64.437352" y="439.758438" transform="rotate(-0 64.437352 439.758438)">2022</text>
     </g>
    </g>
    <g id="xtick_2">
     <g id="line2d_2"/>
     <g id="text_2">
      <text style="font-size: 10px; font-family: 'DejaVu Sans'; text-anchor: middle; fill: #9fb0c7" x="220.247628" y="439.758438" transform="rotate(-0 220.247628 439.758438)">2023</text>
     </g>
    </g>
    <g id="xtick_3">
     <g id="line2d_3"/>
     <g id="text_3">
      <text style="font-size: 10px; font-family: 'DejaVu Sans'; text-anchor: middle; fill: #9fb0c7" x="376.057905" y="439.758438" transform="rotate(-0 376.057905 439.758438)">2024</text>
     </g>
    </g>
    <g id="xtick_4">
     <g id="line2d_4"/>
     <g id="text_4">
      <text style="font-size: 10px; font-family: 'DejaVu Sans'; text-anchor: middle; fill: #9fb0c7" x="532.295059" y="439.758438" transform="rotate(-0 532.295059 439.758438)">2025</text>
     </g>
    </g>
    <g id="xtick_5">
     <g id="line2d_5"/>
     <g id="text_5">
      <text style="font-size: 10px; font-family: 'DejaVu Sans'; text-anchor: middle; fill: #9fb0c7" x="688.105336" y="439.758438" transform="rotate(-0 688.105336 439.758438)">2026</text>
     </g>
    </g>
   </g>
   <g id="matplotlib.axis_2">
    <g id="ytick_1">
     <g id="line2d_6">
      <path d="M 46.85 402.226229 
L 781.25 402.226229 
" clip-path="url(#pccf4c2ad92)" style="fill: none; stroke: #263951; stroke-opacity: 0.65; stroke-width: 0.65; stroke-linecap: square"/>
     </g>
     <g id="line2d_7"/>
     <g id="text_6">
      <text style="font-size: 10px; font-family: 'DejaVu Sans'; text-anchor: end; fill: #9fb0c7" x="39.85" y="406.025448" transform="rotate(-0 39.85 406.025448)">50</text>
     </g>
    </g>
    <g id="ytick_2">
     <g id="line2d_8">
      <path d="M 46.85 334.448515 
L 781.25 334.448515 
" clip-path="url(#pccf4c2ad92)" style="fill: none; stroke: #263951; stroke-opacity: 0.65; stroke-width: 0.65; stroke-linecap: square"/>
     </g>
     <g id="line2d_9"/>
     <g id="text_7">
      <text style="font-size: 10px; font-family: 'DejaVu Sans'; text-anchor: end; fill: #9fb0c7" x="39.85" y="338.247734" transform="rotate(-0 39.85 338.247734)">100</text>
     </g>
    </g>
    <g id="ytick_3">
     <g id="line2d_10">
      <path d="M 46.85 266.670802 
L 781.25 266.670802 
" clip-path="url(#pccf4c2ad92)" style="fill: none; stroke: #263951; stroke-opacity: 0.65; stroke-width: 0.65; stroke-linecap: square"/>
     </g>
     <g id="line2d_11"/>
     <g id="text_8">
      <text style="font-size: 10px; font-family: 'DejaVu Sans'; text-anchor: end; fill: #9fb0c7" x="39.85" y="270.47002" transform="rotate(-0 39.85 270.47002)">200</text>
     </g>
    </g>
    <g id="ytick_4">
     <g id="line2d_12">
      <path d="M 46.85 177.073538 
L 781.25 177.073538 
" clip-path="url(#pccf4c2ad92)" style="fill: none; stroke: #263951; stroke-opacity: 0.65; stroke-width: 0.65; stroke-linecap: square"/>
     </g>
     <g id="line2d_13"/>
     <g id="text_9">
      <text style="font-size: 10px; font-family: 'DejaVu Sans'; text-anchor: end; fill: #9fb0c7" x="39.85" y="180.872756" transform="rotate(-0 39.85 180.872756)">500</text>
     </g>
    </g>
    <g id="ytick_5">
     <g id="line2d_14">
      <path d="M 46.85 109.295824 
L 781.25 109.295824 
" clip-path="url(#pccf4c2ad92)" style="fill: none; stroke: #263951; stroke-opacity: 0.65; stroke-width: 0.65; stroke-linecap: square"/>
     </g>
     <g id="line2d_15"/>
     <g id="text_10">
      <text style="font-size: 10px; font-family: 'DejaVu Sans'; text-anchor: end; fill: #9fb0c7" x="39.85" y="113.095043" transform="rotate(-0 39.85 113.095043)">1000</text>
     </g>
    </g>
    <g id="ytick_6">
     <g id="line2d_16">
      <defs>
       <path id="m9c26b16af9" d="M 0 0 
L -2 0 
" style="stroke: #9fb0c7; stroke-width: 0.6"/>
      </defs>
      <g>
       <use xlink:href="#m9c26b16af9" x="46.85" y="424.045779" style="fill: #9fb0c7; stroke: #9fb0c7; stroke-width: 0.6"/>
      </g>
     </g>
    </g>
    <g id="ytick_7">
     <g id="line2d_17">
      <g>
       <use xlink:href="#m9c26b16af9" x="46.85" y="384.398358" style="fill: #9fb0c7; stroke: #9fb0c7; stroke-width: 0.6"/>
      </g>
     </g>
    </g>
    <g id="ytick_8">
     <g id="line2d_18">
      <g>
       <use xlink:href="#m9c26b16af9" x="46.85" y="369.325109" style="fill: #9fb0c7; stroke: #9fb0c7; stroke-width: 0.6"/>
      </g>
     </g>
    </g>
    <g id="ytick_9">
     <g id="line2d_19">
      <g>
       <use xlink:href="#m9c26b16af9" x="46.85" y="356.268066" style="fill: #9fb0c7; stroke: #9fb0c7; stroke-width: 0.6"/>
      </g>
     </g>
    </g>
    <g id="ytick_10">
     <g id="line2d_20">
      <g>
       <use xlink:href="#m9c26b16af9" x="46.85" y="344.750938" style="fill: #9fb0c7; stroke: #9fb0c7; stroke-width: 0.6"/>
      </g>
     </g>
    </g>
    <g id="ytick_11">
     <g id="line2d_21">
      <g>
       <use xlink:href="#m9c26b16af9" x="46.85" y="227.023381" style="fill: #9fb0c7; stroke: #9fb0c7; stroke-width: 0.6"/>
      </g>
     </g>
    </g>
    <g id="ytick_12">
     <g id="line2d_22">
      <g>
       <use xlink:href="#m9c26b16af9" x="46.85" y="198.893088" style="fill: #9fb0c7; stroke: #9fb0c7; stroke-width: 0.6"/>
      </g>
     </g>
    </g>
    <g id="ytick_13">
     <g id="line2d_23">
      <g>
       <use xlink:href="#m9c26b16af9" x="46.85" y="159.245667" style="fill: #9fb0c7; stroke: #9fb0c7; stroke-width: 0.6"/>
      </g>
     </g>
    </g>
    <g id="ytick_14">
     <g id="line2d_24">
      <g>
       <use xlink:href="#m9c26b16af9" x="46.85" y="144.172417" style="fill: #9fb0c7; stroke: #9fb0c7; stroke-width: 0.6"/>
      </g>
     </g>
    </g>
    <g id="ytick_15">
     <g id="line2d_25">
      <g>
       <use xlink:href="#m9c26b16af9" x="46.85" y="131.115374" style="fill: #9fb0c7; stroke: #9fb0c7; stroke-width: 0.6"/>
      </g>
     </g>
    </g>
    <g id="ytick_16">
     <g id="line2d_26">
      <g>
       <use xlink:href="#m9c26b16af9" x="46.85" y="119.598246" style="fill: #9fb0c7; stroke: #9fb0c7; stroke-width: 0.6"/>
      </g>
     </g>
    </g>
   </g>
   <g id="line2d_27">
    <path d="M 80.231818 334.448515 
L 80.658696 331.633719 
L 81.085573 329.798941 
L 81.512451 330.590867 
L 81.939328 332.567929 
L 83.21996 331.363395 
L 83.646838 328.800027 
L 84.92747 337.106992 
L 86.63498 333.565237 
L 87.061858 336.334226 
L 87.488735 332.792471 
L 87.915613 331.158081 
L 89.196245 330.239497 
L 89.623123 333.950046 
L 90.05 330.886741 
L 90.903755 335.56146 
L 92.184387 338.330448 
L 92.611265 341.099436 
L 93.038142 338.545018 
L 93.46502 340.069411 
L 93.891897 342.507674 
L 95.17253 343.868425 
L 96.026285 336.784916 
L 96.453162 334.347051 
L 96.88004 333.243162 
L 98.160672 332.555906 
L 98.587549 333.327013 
L 99.014427 336.01215 
L 99.441304 332.470396 
L 99.868182 333.299601 
L 101.148814 331.456214 
L 101.575692 329.953553 
L 102.002569 333.306659 
L 102.429447 334.743845 
L 102.856324 335.239384 
L 104.136957 333.100732 
L 104.563834 338.008373 
L 105.844466 346.315338 
L 107.125099 347.778071 
L 107.551976 349.084326 
L 107.978854 347.116284 
L 108.405731 351.853314 
L 747.868182 351.853314 
L 747.868182 351.853314 
" clip-path="url(#pccf4c2ad92)" style="fill: none; stroke: #4dd5c1; stroke-width: 1.7; stroke-linecap: square"/>
   </g>
   <g id="line2d_28">
    <path d="M 80.231818 334.448515 
L 80.658696 331.633719 
L 81.085573 329.798941 
L 81.512451 330.590867 
L 81.939328 332.567929 
L 83.21996 331.363395 
L 83.646838 328.800027 
L 84.92747 337.106992 
L 86.63498 333.565237 
L 87.061858 336.334226 
L 87.488735 332.792471 
L 89.623123 332.792471 
L 90.05 331.047573 
L 90.476877 331.024932 
L 90.903755 333.793921 
L 92.184387 336.562909 
L 92.611265 339.331897 
L 93.038142 336.777479 
L 93.46502 338.301872 
L 93.891897 340.740134 
L 95.17253 342.100885 
L 96.026285 342.100885 
L 96.453162 339.66302 
L 96.88004 338.559131 
L 99.014427 338.559131 
L 99.441304 335.017377 
L 99.868182 335.017377 
L 101.148814 333.54628 
L 101.575692 331.475623 
L 102.002569 334.244611 
L 102.429447 336.152688 
L 102.856324 337.013599 
L 104.136957 334.874947 
L 104.563834 339.782588 
L 105.844466 348.089553 
L 107.125099 349.552286 
L 107.551976 350.858541 
L 747.868182 350.858541 
L 747.868182 350.858541 
" clip-path="url(#pccf4c2ad92)" style="fill: none; stroke: #f4b46b; stroke-width: 1.7; stroke-linecap: square"/>
   </g>
   <g id="line2d_29">
    <path d="M 80.231818 334.448515 
L 81.085573 334.448515 
L 81.512451 335.240442 
L 81.939328 335.039511 
L 83.21996 333.834977 
L 83.646838 331.271609 
L 84.073715 331.271609 
L 84.92747 336.809585 
L 86.63498 333.267831 
L 87.061858 336.036819 
L 87.488735 332.495065 
L 89.623123 332.495065 
L 90.05 330.750166 
L 90.476877 330.727526 
L 90.903755 333.496514 
L 92.184387 336.265502 
L 92.611265 339.034491 
L 93.038142 336.480072 
L 93.891897 341.469863 
L 95.17253 344.238851 
L 95.599407 340.697097 
L 99.014427 340.697097 
L 99.441304 337.155343 
L 99.868182 337.155343 
L 101.148814 335.684245 
L 101.575692 334.195381 
L 102.429447 334.195381 
L 102.856324 336.964369 
L 104.136957 334.825717 
L 104.563834 339.733358 
L 105.844466 348.040323 
L 107.125099 349.503056 
L 107.551976 350.809311 
L 107.978854 348.841269 
L 108.405731 347.66703 
L 110.113241 344.125276 
L 110.966996 340.583521 
L 111.820751 346.121498 
L 113.101383 342.766876 
L 113.528261 348.890486 
L 113.955138 350.003966 
L 114.382016 345.348732 
L 114.808893 348.11772 
L 116.516403 343.709647 
L 116.943281 347.344954 
L 117.370158 347.344954 
L 117.797036 350.113943 
L 119.077668 352.882931 
L 747.868182 352.882931 
L 747.868182 352.882931 
" clip-path="url(#pccf4c2ad92)" style="fill: none; stroke: #82adff; stroke-width: 1.7; stroke-linecap: square"/>
   </g>
   <g id="line2d_30">
    <path d="M 80.231818 334.448515 
L 96.88004 334.448515 
L 98.160672 333.761259 
L 98.587549 334.532366 
L 99.014427 337.217504 
L 99.441304 333.675749 
L 99.868182 334.504955 
L 101.148814 332.661567 
L 101.575692 331.158906 
L 102.002569 334.512013 
L 102.429447 335.949198 
L 102.856324 336.444738 
L 104.136957 334.306085 
L 104.563834 339.213726 
L 104.990711 341.982714 
L 149.812846 341.982714 
L 150.239723 341.231316 
L 150.666601 344.751703 
L 151.947233 344.869537 
L 152.374111 345.794845 
L 152.800988 345.794845 
L 153.227866 348.563833 
L 153.654743 346.807739 
L 154.935375 345.022079 
L 155.78913 337.93857 
L 156.216008 336.204646 
L 156.642885 337.361539 
L 158.350395 348.250962 
L 159.631028 341.943483 
L 160.91166 341.167453 
L 161.338538 341.526146 
L 161.765415 343.936441 
L 162.192292 341.593073 
L 162.61917 346.70543 
L 163.899802 349.474418 
L 164.753557 349.474418 
L 165.180435 345.932664 
L 165.607312 348.701652 
L 195.488735 348.701652 
L 196.769368 348.347803 
L 197.196245 345.134272 
L 197.623123 347.90326 
L 198.476877 341.343115 
L 199.75751 340.819752 
L 200.184387 341.294326 
L 200.611265 344.443807 
L 201.038142 344.827104 
L 201.46502 347.212796 
L 202.745652 346.268025 
L 203.599407 341.293235 
L 204.453162 342.778367 
L 206.160672 346.44003 
L 206.587549 342.898276 
L 207.014427 342.265648 
L 207.441304 345.667264 
L 208.721937 346.219189 
L 209.148814 348.436252 
L 210.002569 344.894498 
L 210.429447 345.951315 
L 211.710079 342.927217 
L 212.136957 337.671884 
L 213.417589 345.978849 
L 214.698221 348.747837 
L 215.125099 348.766657 
L 215.551976 346.269916 
L 215.978854 351.516825 
L 216.405731 351.599062 
L 218.113241 354.285814 
L 747.868182 354.285814 
L 747.868182 354.285814 
" clip-path="url(#pccf4c2ad92)" style="fill: none; stroke: #c2a1ff; stroke-width: 1.7; stroke-linecap: square"/>
   </g>
   <g id="line2d_31">
    <path d="M 80.231818 334.448515 
L 80.658696 331.633719 
L 81.085573 325.604011 
L 81.512451 328.88427 
L 81.939328 336.254926 
L 83.21996 334.965055 
L 83.646838 326.375985 
L 84.073715 326.316953 
L 84.500593 334.00277 
L 84.92747 337.516483 
L 86.63498 338.564326 
L 87.061858 342.849981 
L 87.488735 337.079043 
L 87.915613 335.409333 
L 89.196245 334.490749 
L 89.623123 338.201298 
L 90.05 335.137993 
L 90.476877 337.202478 
L 90.903755 340.464297 
L 92.184387 347.461827 
L 92.611265 346.722761 
L 93.038142 340.132327 
L 93.46502 341.65672 
L 93.891897 344.094982 
L 95.17253 347.562644 
L 96.026285 334.029997 
L 96.453162 332.958117 
L 96.88004 326.514468 
L 98.160672 325.481241 
L 98.587549 326.252348 
L 99.014427 329.58971 
L 99.441304 320.434556 
L 99.868182 322.038551 
L 101.148814 320.195164 
L 101.575692 318.692503 
L 102.002569 322.045609 
L 102.429447 323.482795 
L 102.856324 325.561725 
L 104.136957 323.217971 
L 104.990711 334.385921 
L 105.417589 335.186428 
L 105.844466 339.687208 
L 107.551976 346.76821 
L 107.978854 343.640291 
L 108.405731 347.893286 
L 110.113241 345.507711 
L 110.540119 343.662325 
L 110.966996 346.868296 
L 111.393874 352.96746 
L 111.820751 356.258574 
L 113.101383 354.338413 
L 113.528261 359.970906 
L 113.955138 361.931712 
L 114.382016 354.929789 
L 114.808893 361.233282 
L 116.089526 356.168396 
L 116.516403 355.823609 
L 116.943281 352.238624 
L 117.370158 359.679844 
L 117.797036 360.560774 
L 119.077668 370.037654 
L 119.504545 366.385776 
L 119.931423 371.901353 
L 120.3583 374.614001 
L 120.785178 365.770823 
L 122.06581 368.242779 
L 122.492688 363.203708 
L 122.919565 370.106905 
L 123.346443 369.038967 
L 123.77332 371.525756 
L 125.053953 370.33807 
L 125.48083 374.741 
L 126.761462 359.851242 
L 128.468972 360.576473 
L 128.89585 362.437443 
L 129.322727 355.873512 
L 129.749605 360.325458 
L 131.030237 359.981289 
L 131.457115 359.255279 
L 131.883992 360.68157 
L 132.31087 363.879449 
L 132.737747 369.878618 
L 134.018379 377.838465 
L 134.445257 376.664441 
L 134.872134 372.488184 
L 135.299012 378.126367 
L 135.725889 376.393121 
L 137.433399 372.257715 
L 137.860277 373.481254 
L 138.287154 374.291497 
L 138.714032 369.006882 
L 139.994664 370.485397 
L 140.421542 375.767066 
L 141.275296 380.936684 
L 141.702174 385.127717 
L 143.409684 382.202685 
L 143.836561 381.123934 
L 144.263439 376.528684 
L 144.690316 376.652085 
L 145.970949 380.981859 
L 146.397826 381.434637 
L 146.824704 380.904464 
L 147.251581 379.572316 
L 147.678458 377.122434 
L 148.959091 375.04167 
L 149.812846 365.19399 
L 150.239723 363.868623 
L 150.666601 367.911125 
L 151.947233 369.591019 
L 152.374111 372.45271 
L 152.800988 365.287348 
L 153.654743 363.258357 
L 155.362253 361.323407 
L 156.216008 357.752753 
L 156.642885 358.909646 
L 157.923518 365.270874 
L 158.350395 369.235557 
L 158.777273 363.614329 
L 159.20415 364.455438 
L 159.631028 360.362225 
L 160.91166 358.688482 
L 161.338538 359.47774 
L 161.765415 362.33675 
L 162.192292 360.028295 
L 162.61917 364.963584 
L 163.899802 369.53357 
L 164.32668 368.693385 
L 164.753557 368.460278 
L 165.180435 364.613615 
L 165.607312 374.080798 
L 166.887945 376.8808 
L 167.7417 381.356878 
L 168.168577 389.155048 
L 168.595455 391.21117 
L 170.302964 392.523975 
L 171.156719 388.75486 
L 171.583597 386.018669 
L 172.864229 385.219942 
L 173.291107 394.951049 
L 173.717984 394.973366 
L 174.144862 396.466944 
L 174.571739 394.453365 
L 175.852372 393.09956 
L 176.279249 394.616493 
L 176.706126 393.987713 
L 177.133004 399.290538 
L 177.559881 399.641474 
L 178.840514 401.917785 
L 179.267391 400.449502 
L 179.694269 397.937629 
L 180.121146 401.981789 
L 180.548024 402.632093 
L 181.828656 399.672708 
L 182.255534 394.683323 
L 182.682411 394.371903 
L 183.109289 394.95848 
L 183.536166 403.140905 
L 184.816798 406.484926 
L 185.670553 407.919816 
L 186.097431 404.084708 
L 186.524308 410.269091 
L 187.804941 404.675164 
L 188.658696 403.343538 
L 189.085573 402.190042 
L 189.512451 400.032893 
L 190.793083 398.995167 
L 191.21996 393.987713 
L 191.646838 396.716845 
L 192.073715 394.616493 
L 192.500593 389.85133 
L 193.781225 392.262831 
L 194.208103 391.930141 
L 194.63498 394.297911 
L 195.061858 392.815 
L 195.488735 387.60143 
L 196.769368 386.604933 
L 197.196245 384.568223 
L 197.623123 390.26214 
L 198.05 377.167842 
L 198.476877 373.649661 
L 199.75751 373.841506 
L 200.184387 371.640164 
L 200.611265 376.179516 
L 201.46502 379.308178 
L 202.745652 379.893732 
L 203.17253 375.395966 
L 203.599407 372.506474 
L 204.453162 373.991606 
L 205.733794 376.690969 
L 206.160672 377.859431 
L 206.587549 370.118797 
L 207.014427 368.901461 
L 207.441304 370.39075 
L 208.721937 371.94427 
L 209.148814 375.682402 
L 209.575692 374.872275 
L 210.002569 368.707607 
L 210.429447 369.669145 
L 211.710079 366.645048 
L 212.136957 363.695435 
L 212.563834 365.872973 
L 212.990711 369.95139 
L 213.417589 372.174125 
L 214.698221 374.06282 
L 215.125099 375.084816 
L 215.551976 372.588074 
L 215.978854 379.728392 
L 216.405731 380.579929 
L 218.113241 387.818473 
L 218.540119 388.408857 
L 218.966996 384.53651 
L 219.393874 384.462876 
L 221.101383 386.484262 
L 221.528261 383.563745 
L 221.955138 386.826376 
L 222.382016 382.83718 
L 224.089526 376.160655 
L 224.516403 375.596814 
L 225.370158 370.257562 
L 227.077668 365.71819 
L 227.504545 367.530125 
L 227.931423 371.036021 
L 228.3583 364.964338 
L 229.638933 357.810703 
L 230.492688 357.15063 
L 231.346443 352.014949 
L 232.627075 357.968778 
L 233.053953 356.073646 
L 233.48083 349.278309 
L 233.907708 345.765755 
L 234.334585 348.548016 
L 235.615217 348.598987 
L 236.042095 343.697776 
L 236.468972 343.556772 
L 236.89585 342.977206 
L 237.322727 347.786343 
L 238.60336 345.410532 
L 239.030237 340.240463 
L 239.457115 341.125626 
L 240.31087 347.222387 
L 242.018379 350.632319 
L 242.445257 350.164762 
L 242.872134 337.33414 
L 243.299012 338.908668 
L 244.579644 338.009999 
L 245.006522 339.203067 
L 245.433399 341.409528 
L 246.287154 336.404689 
L 247.567787 337.789726 
L 247.994664 338.883688 
L 248.421542 335.204236 
L 248.848419 338.264218 
L 249.275296 340.249396 
L 250.555929 340.245137 
L 250.982806 335.682552 
L 251.409684 335.014353 
L 251.836561 329.853773 
L 252.263439 329.151868 
L 253.544071 328.488934 
L 254.397826 326.367691 
L 254.824704 323.732491 
L 255.251581 325.225435 
L 256.532213 326.1352 
L 256.959091 326.582193 
L 257.385968 324.479735 
L 258.239723 321.647528 
L 259.520356 320.987953 
L 260.374111 324.853686 
L 260.800988 324.287857 
L 262.508498 322.347043 
L 262.935375 323.81163 
L 263.362253 326.267981 
L 263.78913 326.386163 
L 264.216008 325.302136 
L 265.49664 324.414529 
L 265.923518 322.035529 
L 266.350395 321.106916 
L 266.777273 324.045851 
L 267.20415 323.991754 
L 268.484783 324.269776 
L 268.91166 327.209929 
L 269.338538 324.581265 
L 269.765415 323.606692 
L 270.192292 321.746151 
L 271.472925 317.738276 
L 271.899802 320.135028 
L 272.32668 321.559565 
L 272.753557 322.407342 
L 273.180435 318.519302 
L 274.461067 316.92651 
L 274.887945 318.891626 
L 275.314822 317.822847 
L 276.168577 319.685434 
L 277.876087 316.718762 
L 278.302964 313.540886 
L 278.729842 308.797529 
L 279.156719 310.083873 
L 280.437352 310.359478 
L 280.864229 311.902186 
L 281.291107 312.38133 
L 281.717984 291.056134 
L 282.144862 288.600192 
L 283.852372 285.718092 
L 284.279249 291.432755 
L 284.706126 286.552926 
L 285.133004 287.648232 
L 286.413636 288.036888 
L 286.840514 289.336072 
L 287.267391 292.354911 
L 287.694269 289.690913 
L 289.401779 287.253494 
L 290.255534 278.914056 
L 290.682411 279.699516 
L 291.109289 279.610163 
L 292.816798 277.086895 
L 293.243676 278.804966 
L 293.670553 278.850402 
L 294.097431 280.722744 
L 295.378063 284.446044 
L 295.804941 281.497234 
L 296.231818 283.285788 
L 296.658696 283.98988 
L 297.085573 280.507538 
L 298.366206 280.251278 
L 299.21996 280.472837 
L 299.646838 280.968593 
L 300.073715 280.043992 
L 301.354348 280.789921 
L 301.781225 280.269711 
L 302.208103 276.877308 
L 302.63498 272.361539 
L 303.061858 273.447967 
L 304.34249 271.337591 
L 304.769368 269.18734 
L 305.196245 270.049671 
L 306.05 275.974961 
L 307.330632 275.308563 
L 307.75751 272.997405 
L 308.184387 273.484566 
L 308.611265 272.525451 
L 309.038142 270.731228 
L 310.318775 270.775164 
L 310.745652 271.24082 
L 311.17253 276.06327 
L 311.599407 275.521411 
L 312.026285 275.159639 
L 313.306917 273.55986 
L 313.733794 275.194644 
L 314.160672 279.926748 
L 314.587549 280.308928 
L 315.014427 283.910875 
L 316.295059 277.209722 
L 316.721937 276.792688 
L 317.148814 277.808264 
L 317.575692 278.128093 
L 318.002569 278.229662 
L 319.283202 270.27839 
L 319.710079 273.020952 
L 320.136957 269.968679 
L 320.563834 269.871195 
L 320.990711 272.2744 
L 322.271344 270.553609 
L 322.698221 266.566846 
L 323.125099 265.609436 
L 323.551976 265.428991 
L 323.978854 267.119613 
L 325.686364 267.041027 
L 326.113241 270.074842 
L 326.966996 273.21865 
L 328.247628 274.067732 
L 328.674506 274.736646 
L 329.101383 273.405489 
L 329.528261 273.199346 
L 329.955138 276.873703 
L 331.235771 276.7268 
L 331.662648 277.723787 
L 332.516403 283.515839 
L 332.943281 282.112284 
L 334.223913 280.684563 
L 334.650791 281.407462 
L 335.931423 277.770981 
L 337.212055 274.928611 
L 337.638933 277.730537 
L 338.492688 275.134067 
L 338.919565 272.811833 
L 340.200198 273.862334 
L 340.627075 272.734944 
L 341.053953 270.606126 
L 341.48083 270.316175 
L 341.907708 273.457138 
L 343.18834 272.102858 
L 344.042095 280.744795 
L 344.468972 280.965189 
L 344.89585 282.637745 
L 346.60336 277.40301 
L 347.457115 285.177185 
L 347.883992 284.756178 
L 349.164625 283.173146 
L 349.591502 284.082477 
L 350.445257 277.755253 
L 350.872134 274.442888 
L 352.579644 272.4003 
L 353.006522 271.091996 
L 353.433399 270.305752 
L 353.860277 267.462943 
L 355.140909 266.888098 
L 355.567787 264.826397 
L 355.994664 266.350568 
L 356.421542 265.173591 
L 356.848419 265.533924 
L 358.129051 263.354724 
L 358.555929 264.260904 
L 358.982806 266.695196 
L 359.836561 268.600407 
L 361.117194 267.65127 
L 361.544071 268.508344 
L 361.970949 267.858219 
L 362.397826 270.681342 
L 362.824704 270.691806 
L 364.105336 273.351792 
L 364.532213 271.100187 
L 364.959091 273.358239 
L 365.812846 269.145974 
L 367.093478 270.972179 
L 367.520356 268.835657 
L 367.947233 267.955299 
L 368.374111 267.424014 
L 368.800988 266.337978 
L 370.081621 263.992254 
L 370.508498 264.920271 
L 370.935375 267.908547 
L 371.362253 266.138165 
L 371.78913 266.458032 
L 374.350395 265.082029 
L 374.777273 265.082029 
L 376.484783 267.792775 
L 376.91166 269.016386 
L 377.338538 268.138481 
L 379.046047 259.833039 
L 379.472925 258.187098 
L 379.899802 255.985552 
L 380.32668 255.140039 
L 380.753557 255.34001 
L 382.461067 252.39641 
L 382.887945 252.968657 
L 383.314822 251.147076 
L 383.7417 247.147915 
L 385.022332 246.880368 
L 385.449209 246.522046 
L 385.876087 244.120007 
L 386.302964 243.714515 
L 386.729842 244.648904 
L 388.010474 242.377961 
L 388.437352 241.895445 
L 388.864229 243.857429 
L 389.291107 241.502141 
L 389.717984 236.758404 
L 390.998617 232.179223 
L 391.425494 233.755948 
L 391.852372 231.103431 
L 392.279249 231.744398 
L 392.706126 228.30652 
L 393.986759 228.150763 
L 394.413636 228.313309 
L 394.840514 225.940073 
L 395.267391 227.597432 
L 395.694269 227.658026 
L 397.401779 232.010127 
L 397.828656 234.838298 
L 398.255534 219.988078 
L 398.682411 219.641326 
L 399.963043 219.300736 
L 400.389921 219.785363 
L 400.816798 221.083588 
L 401.243676 219.276039 
L 401.670553 215.437946 
L 403.378063 211.149218 
L 403.804941 208.085571 
L 404.231818 203.805236 
L 404.658696 209.386185 
L 405.939328 211.365574 
L 406.366206 204.606212 
L 406.793083 205.702803 
L 407.21996 208.922559 
L 407.646838 209.041603 
L 408.92747 208.356027 
L 410.208103 205.116072 
L 410.63498 202.110604 
L 411.915613 201.373972 
L 412.769368 206.391614 
L 413.196245 206.276841 
L 414.903755 206.269266 
L 415.330632 207.260051 
L 415.75751 207.794966 
L 416.184387 211.216371 
L 416.611265 208.851415 
L 417.891897 209.828459 
L 418.318775 211.845584 
L 418.745652 209.934006 
L 419.17253 205.995879 
L 419.599407 208.653842 
L 420.88004 211.107149 
L 421.306917 209.512516 
L 421.733794 213.368431 
L 422.160672 212.63117 
L 422.587549 222.938581 
L 423.868182 218.770903 
L 424.295059 215.262359 
L 424.721937 218.575575 
L 425.148814 215.014731 
L 425.575692 209.155203 
L 426.856324 209.130686 
L 427.283202 210.652267 
L 427.710079 214.531937 
L 428.563834 207.987514 
L 429.844466 204.365019 
L 430.271344 206.06279 
L 430.698221 206.21624 
L 431.125099 208.033763 
L 431.551976 206.795485 
L 432.832609 206.230301 
L 433.259486 205.200586 
L 433.686364 201.75761 
L 434.113241 202.03802 
L 434.540119 204.005913 
L 436.247628 200.979524 
L 436.674506 201.427494 
L 437.101383 192.714483 
L 437.528261 190.231054 
L 439.235771 183.633103 
L 439.662648 182.843069 
L 440.089526 186.597307 
L 440.516403 187.367541 
L 442.223913 181.479863 
L 442.650791 176.564255 
L 443.077668 177.722693 
L 443.504545 177.81163 
L 444.785178 177.084746 
L 445.212055 177.785811 
L 446.06581 170.991543 
L 446.492688 169.293784 
L 447.77332 169.963389 
L 448.200198 166.588198 
L 449.053953 170.112802 
L 449.48083 173.312357 
L 450.761462 180.076865 
L 451.18834 173.683888 
L 451.615217 173.443777 
L 452.042095 175.326145 
L 452.468972 175.68167 
L 453.749605 175.081973 
L 454.176482 176.372729 
L 454.60336 172.000129 
L 455.457115 173.885718 
L 456.737747 172.061137 
L 457.591502 167.072611 
L 458.018379 172.673224 
L 458.445257 171.271065 
L 459.725889 171.878229 
L 460.152767 173.474724 
L 460.579644 180.176263 
L 461.006522 177.640353 
L 461.433399 180.226003 
L 462.714032 175.68167 
L 463.140909 176.436509 
L 463.567787 183.325915 
L 463.994664 185.026679 
L 464.421542 184.349752 
L 465.702174 185.629447 
L 466.129051 192.771497 
L 466.555929 180.983475 
L 466.982806 187.737522 
L 467.409684 189.490139 
L 468.690316 195.913369 
L 469.117194 192.282512 
L 469.544071 197.424081 
L 469.970949 191.609517 
L 470.397826 191.814669 
L 471.678458 187.907785 
L 472.105336 181.721575 
L 472.532213 180.101697 
L 472.959091 176.22138 
L 474.666601 170.697751 
L 475.093478 172.788419 
L 475.520356 171.832576 
L 475.947233 175.523513 
L 476.374111 171.172786 
L 477.654743 173.39737 
L 478.081621 171.984875 
L 478.508498 174.05683 
L 478.935375 180.508323 
L 479.362253 179.039244 
L 481.069763 188.826953 
L 481.49664 190.461184 
L 481.923518 189.544837 
L 482.350395 193.62359 
L 483.631028 190.222108 
L 484.057905 188.736462 
L 484.484783 181.075416 
L 484.91166 179.219469 
L 485.338538 179.252305 
L 486.61917 181.175847 
L 487.046047 182.177374 
L 487.472925 184.073639 
L 487.899802 180.267397 
L 488.32668 181.831139 
L 489.607312 181.612224 
L 490.03419 177.809796 
L 490.461067 175.697059 
L 490.887945 175.278361 
L 491.314822 177.381973 
L 492.595455 177.349765 
L 493.022332 180.991805 
L 493.449209 179.457767 
L 493.876087 176.220979 
L 494.302964 174.58709 
L 495.583597 172.419561 
L 496.010474 168.53942 
L 496.437352 168.716159 
L 496.864229 167.136764 
L 497.291107 167.144006 
L 498.571739 164.800292 
L 498.998617 169.493249 
L 499.425494 166.478917 
L 500.279249 164.849882 
L 501.559881 160.885418 
L 501.986759 160.9671 
L 502.413636 163.750722 
L 503.267391 162.373184 
L 504.548024 163.080387 
L 504.974901 162.573736 
L 505.401779 163.904984 
L 505.828656 168.635119 
L 506.255534 166.709738 
L 507.536166 166.241441 
L 507.963043 163.505796 
L 508.389921 159.601089 
L 508.816798 157.429454 
L 509.243676 158.253929 
L 510.524308 159.836425 
L 510.951186 157.817749 
L 511.378063 159.158882 
L 511.804941 158.83187 
L 512.231818 162.069697 
L 513.512451 163.33822 
L 513.939328 158.665438 
L 514.366206 159.413247 
L 514.793083 158.891844 
L 515.21996 162.090358 
L 516.500593 166.263013 
L 516.92747 165.618149 
L 517.354348 166.753093 
L 518.208103 164.672895 
L 519.488735 164.404513 
L 519.915613 163.261483 
L 520.34249 159.917225 
L 520.769368 159.964399 
L 521.196245 161.746641 
L 522.476877 164.270889 
L 522.903755 166.941613 
L 523.330632 163.919307 
L 523.75751 165.311937 
L 524.184387 167.537054 
L 525.46502 169.18976 
L 526.318775 171.505968 
L 526.745652 170.172517 
L 527.17253 167.209846 
L 528.453162 163.666928 
L 528.88004 163.282631 
L 529.733794 163.48508 
L 530.160672 165.547162 
L 531.441304 165.20519 
L 531.868182 167.50792 
L 532.721937 164.623728 
L 533.148814 160.362924 
L 534.429447 157.062169 
L 534.856324 163.338454 
L 535.283202 163.359374 
L 536.136957 166.335378 
L 537.417589 168.282811 
L 537.844466 169.367703 
L 538.271344 166.09824 
L 538.698221 168.0336 
L 539.125099 165.048843 
L 540.832609 162.858178 
L 541.259486 158.618785 
L 541.686364 158.519117 
L 542.113241 161.62317 
L 543.393874 179.805452 
L 543.820751 171.445295 
L 544.247628 175.540012 
L 544.674506 174.791921 
L 545.101383 178.452407 
L 546.382016 181.269632 
L 546.808893 179.615724 
L 547.235771 174.650828 
L 547.662648 171.680595 
L 549.370158 168.0336 
L 549.797036 168.598912 
L 550.223913 169.828907 
L 551.077668 164.2427 
L 552.785178 163.856138 
L 553.212055 163.975463 
L 553.638933 163.359374 
L 554.06581 167.406044 
L 555.346443 170.47226 
L 555.77332 173.250906 
L 556.200198 169.724575 
L 556.627075 178.387268 
L 557.053953 174.580352 
L 558.334585 183.473572 
L 558.761462 181.832838 
L 559.18834 180.734664 
L 559.615217 186.512243 
L 560.042095 184.655158 
L 561.322727 189.73974 
L 561.749605 188.126158 
L 562.176482 182.034825 
L 562.60336 182.170097 
L 563.030237 177.149011 
L 564.31087 178.88417 
L 564.737747 182.297081 
L 565.164625 180.542452 
L 565.591502 179.705675 
L 566.018379 180.392801 
L 567.299012 177.358184 
L 567.725889 177.939795 
L 568.152767 183.7221 
L 569.006522 187.302425 
L 570.287154 188.459416 
L 570.714032 186.875379 
L 571.140909 186.635994 
L 571.994664 202.056699 
L 573.275296 198.663649 
L 573.702174 200.014891 
L 574.129051 183.233375 
L 574.555929 189.192956 
L 574.982806 186.185403 
L 576.263439 186.379521 
L 576.690316 185.072285 
L 577.117194 192.033577 
L 577.544071 194.882096 
L 579.251581 199.397446 
L 579.678458 197.419757 
L 580.959091 186.114898 
L 582.239723 188.144144 
L 582.666601 187.883689 
L 583.093478 187.973428 
L 583.947233 183.088088 
L 585.654743 183.911377 
L 586.081621 180.925941 
L 586.508498 180.667332 
L 586.935375 181.269024 
L 588.216008 176.085921 
L 589.069763 166.737357 
L 589.49664 167.10652 
L 589.923518 166.694008 
L 591.20415 166.571321 
L 591.631028 167.433416 
L 592.057905 169.329027 
L 592.484783 168.567841 
L 592.91166 169.708136 
L 594.61917 166.621829 
L 595.046047 167.121021 
L 595.472925 163.994568 
L 595.899802 166.889184 
L 597.180435 165.274451 
L 597.607312 162.578777 
L 598.03419 162.095279 
L 598.461067 163.434162 
L 598.887945 162.233185 
L 600.168577 161.607306 
L 600.595455 160.699729 
L 601.022332 161.463508 
L 601.449209 159.989076 
L 601.876087 162.054055 
L 603.156719 160.198354 
L 603.583597 160.584332 
L 604.010474 159.665927 
L 604.864229 160.767686 
L 606.144862 160.550406 
L 606.571739 158.052742 
L 606.998617 153.904081 
L 607.425494 153.455211 
L 607.852372 151.748172 
L 609.133004 151.599519 
L 609.559881 154.546195 
L 609.986759 152.058607 
L 610.413636 150.76754 
L 612.121146 151.444915 
L 612.548024 150.363349 
L 612.974901 148.618919 
L 613.401779 147.889236 
L 613.828656 147.401843 
L 615.109289 147.907116 
L 615.536166 144.033516 
L 615.963043 143.650468 
L 616.389921 142.724796 
L 616.816798 143.058837 
L 618.097431 143.644756 
L 618.524308 146.158731 
L 619.378063 142.307423 
L 619.804941 142.442591 
L 621.085573 140.627878 
L 621.512451 141.316294 
L 621.939328 139.243589 
L 622.366206 140.010222 
L 622.793083 142.318685 
L 624.073715 138.846223 
L 624.500593 139.796055 
L 625.354348 138.428818 
L 625.781225 137.390375 
L 627.061858 137.733517 
L 627.488735 137.144493 
L 627.915613 137.986269 
L 628.34249 137.755003 
L 628.769368 138.602074 
L 630.05 137.760381 
L 630.476877 141.243896 
L 631.330632 141.612028 
L 631.75751 139.944267 
L 633.038142 138.949494 
L 633.46502 137.889395 
L 633.891897 137.980878 
L 634.318775 138.753919 
L 634.745652 142.060109 
L 636.453162 143.987701 
L 636.88004 144.079345 
L 637.306917 143.48513 
L 637.733794 146.164583 
L 639.014427 145.412262 
L 639.441304 143.999157 
L 639.868182 140.307529 
L 640.295059 140.390278 
L 640.721937 140.032197 
L 642.002569 140.070689 
L 642.429447 141.662401 
L 642.856324 144.263146 
L 643.283202 140.904912 
L 643.710079 140.666639 
L 644.990711 136.899032 
L 645.417589 139.697339 
L 645.844466 140.500734 
L 646.698221 139.828944 
L 647.978854 137.840846 
L 648.405731 135.330002 
L 648.832609 134.984713 
L 649.259486 134.12681 
L 649.686364 134.786466 
L 651.393874 136.140429 
L 652.247628 132.240106 
L 652.674506 137.138977 
L 653.955138 134.422324 
L 654.382016 138.824421 
L 654.808893 138.933105 
L 655.235771 137.862364 
L 655.662648 137.106948 
L 656.943281 137.416981 
L 657.370158 138.212581 
L 657.797036 138.688722 
L 658.223913 137.674305 
L 658.650791 135.497858 
L 659.931423 132.790048 
L 660.3583 128.035998 
L 660.785178 125.155534 
L 661.212055 127.135444 
L 661.638933 127.32841 
L 662.919565 125.231132 
L 663.346443 129.180873 
L 663.77332 130.908674 
L 664.200198 134.547021 
L 664.627075 134.510635 
L 665.907708 129.00386 
L 666.334585 131.940976 
L 666.761462 131.617523 
L 667.18834 135.183371 
L 667.615217 133.466435 
L 668.89585 135.319518 
L 669.322727 138.104687 
L 669.749605 135.361446 
L 670.176482 138.493659 
L 670.60336 139.451033 
L 671.883992 137.465173 
L 672.31087 140.032197 
L 672.737747 138.699574 
L 673.591502 140.484158 
L 674.872134 138.884176 
L 675.299012 138.050784 
L 675.725889 139.063693 
L 676.152767 137.016148 
L 676.579644 137.534752 
L 677.860277 135.865849 
L 678.287154 136.171982 
L 678.714032 136.803099 
L 679.140909 138.331364 
L 679.567787 141.578713 
L 680.848419 140.871736 
L 681.275296 140.081754 
L 681.702174 143.885169 
L 682.129051 142.071607 
L 682.555929 138.298934 
L 683.836561 136.850997 
L 684.263439 133.955848 
L 684.690316 134.266421 
L 685.544071 133.276055 
L 687.678458 135.366486 
L 688.532213 134.142074 
L 689.812846 134.520787 
L 690.239723 134.97927 
L 690.666601 134.007547 
L 691.093478 136.134986 
L 691.520356 136.230153 
L 692.800988 136.187843 
L 693.227866 135.728931 
L 693.654743 137.144216 
L 694.081621 135.078543 
L 694.508498 135.508161 
L 696.216008 139.889374 
L 696.642885 137.048147 
L 697.069763 136.240735 
L 697.49664 134.754975 
L 698.777273 135.382217 
L 699.20415 134.313093 
L 699.631028 132.769283 
L 700.057905 132.265138 
L 700.484783 132.968607 
L 701.765415 135.834234 
L 702.61917 142.043532 
L 703.046047 143.34894 
L 703.472925 135.939659 
L 704.753557 133.527855 
L 705.180435 134.302725 
L 705.607312 133.522704 
L 706.03419 135.136067 
L 706.461067 137.320563 
L 708.168577 136.171982 
L 708.595455 134.593588 
L 709.022332 134.635207 
L 709.449209 133.641109 
L 710.729842 132.753967 
L 711.156719 132.092585 
L 711.583597 130.72808 
L 712.437352 140.373797 
L 713.717984 137.497238 
L 714.144862 138.808111 
L 714.571739 137.19762 
L 714.998617 137.037485 
L 715.425494 140.026751 
L 716.706126 137.406189 
L 717.133004 136.277763 
L 717.559881 135.607932 
L 718.413636 138.69426 
L 719.694269 137.096214 
L 720.548024 138.612925 
L 720.974901 139.615383 
L 721.401779 142.87826 
L 722.682411 141.227644 
L 723.109289 141.47291 
L 723.536166 139.549693 
L 723.963043 143.70842 
L 724.389921 145.856052 
L 725.670553 147.237478 
L 726.097431 141.92043 
L 726.951186 140.258202 
L 728.658696 140.120492 
L 729.085573 139.867607 
L 729.512451 137.706521 
L 729.939328 136.728659 
L 730.366206 134.250759 
L 731.646838 133.898896 
L 732.073715 130.248924 
L 732.500593 129.081593 
L 732.92747 129.337602 
L 733.354348 127.709613 
L 734.63498 127.525545 
L 735.061858 128.586238 
L 735.488735 127.312847 
L 735.915613 128.70372 
L 736.34249 124.565602 
L 737.623123 120.726348 
L 738.476877 124.106574 
L 738.903755 128.738008 
L 739.330632 129.288321 
L 740.611265 129.273541 
L 741.038142 130.253898 
L 741.46502 124.772401 
L 742.318775 121.364936 
L 744.026285 118.861808 
L 744.453162 116.650379 
L 744.88004 112.450909 
L 745.306917 116.871452 
L 746.587549 118.182113 
L 747.014427 118.937129 
L 747.441304 117.677617 
L 747.868182 119.425912 
L 747.868182 119.425912 
" clip-path="url(#pccf4c2ad92)" style="fill: none; stroke-dasharray: 6.29,2.72; stroke-dashoffset: 0; stroke: #dce6f3; stroke-width: 1.7"/>
   </g>
   <g id="line2d_32">
    <path d="M 46.85 334.448515 
L 781.25 334.448515 
" clip-path="url(#pccf4c2ad92)" style="fill: none; stroke: #9fb0c7; stroke-opacity: 0.5; stroke-width: 0.6; stroke-linecap: square"/>
   </g>
   <g id="patch_3">
    <path d="M 46.85 425.16 
L 46.85 97.56 
" style="fill: none; stroke: #263951; stroke-width: 0.8; stroke-linejoin: miter; stroke-linecap: square"/>
   </g>
   <g id="patch_4">
    <path d="M 46.85 425.16 
L 781.25 425.16 
" style="fill: none; stroke: #263951; stroke-width: 0.8; stroke-linejoin: miter; stroke-linecap: square"/>
   </g>
   <g id="text_11">
    <text style="font-weight: 700; font-size: 12px; font-family: 'DejaVu Sans'; text-anchor: start; fill: #e7edf5" x="46.85" y="84.56" transform="rotate(-0 46.85 84.56)">Net wealth · initial = 100 · log scale</text>
   </g>
   <g id="legend_1">
    <g id="line2d_33">
     <path d="M 54.05 108.03875 
L 62.05 108.03875 
L 70.05 108.03875 
" style="fill: none; stroke: #4dd5c1; stroke-width: 1.7; stroke-linecap: square"/>
    </g>
    <g id="text_12">
     <text style="font-size: 8px; font-family: 'DejaVu Sans'; text-anchor: start; fill: #e7edf5" x="76.45" y="110.83875" transform="rotate(-0 76.45 110.83875)">Rule + calibration</text>
    </g>
    <g id="line2d_34">
     <path d="M 54.05 119.78125 
L 62.05 119.78125 
L 70.05 119.78125 
" style="fill: none; stroke: #f4b46b; stroke-width: 1.7; stroke-linecap: square"/>
    </g>
    <g id="text_13">
     <text style="font-size: 8px; font-family: 'DejaVu Sans'; text-anchor: start; fill: #e7edf5" x="76.45" y="122.58125" transform="rotate(-0 76.45 122.58125)">Logistic + calibration</text>
    </g>
    <g id="line2d_35">
     <path d="M 54.05 131.52375 
L 62.05 131.52375 
L 70.05 131.52375 
" style="fill: none; stroke: #82adff; stroke-width: 1.7; stroke-linecap: square"/>
    </g>
    <g id="text_14">
     <text style="font-size: 8px; font-family: 'DejaVu Sans'; text-anchor: start; fill: #e7edf5" x="76.45" y="134.32375" transform="rotate(-0 76.45 134.32375)">Boosting + calibration</text>
    </g>
    <g id="line2d_36">
     <path d="M 54.05 143.26625 
L 62.05 143.26625 
L 70.05 143.26625 
" style="fill: none; stroke: #c2a1ff; stroke-width: 1.7; stroke-linecap: square"/>
    </g>
    <g id="text_15">
     <text style="font-size: 8px; font-family: 'DejaVu Sans'; text-anchor: start; fill: #e7edf5" x="76.45" y="146.06625" transform="rotate(-0 76.45 146.06625)">Trend control</text>
    </g>
    <g id="line2d_37">
     <path d="M 54.05 155.00875 
L 62.05 155.00875 
L 70.05 155.00875 
" style="fill: none; stroke-dasharray: 6.29,2.72; stroke-dashoffset: 0; stroke: #dce6f3; stroke-width: 1.7"/>
    </g>
    <g id="text_16">
     <text style="font-size: 8px; font-family: 'DejaVu Sans'; text-anchor: start; fill: #e7edf5" x="76.45" y="157.80875" transform="rotate(-0 76.45 157.80875)">NVDA buy &amp; hold</text>
    </g>
   </g>
  </g>
  <g id="text_17">
   <text style="font-weight: 700; font-size: 23px; font-family: 'DejaVu Sans'; text-anchor: start; fill: #e7edf5" x="16.61" y="31.977031" transform="rotate(-0 16.61 31.977031)">NVDA | Net wealth</text>
  </g>
  <g id="text_18">
   <text style="font-size: 10px; font-family: 'DejaVu Sans'; text-anchor: start; fill: #9fb0c7" x="16.61" y="38.592" transform="rotate(-0 16.61 38.592)">Strategy evaluation: 2022-02-07 — 2026-05-21  |  Frozen historical inputs · development evaluation</text>
  </g>
  <g id="text_19">
   <text style="font-size: 8px; font-family: 'DejaVu Sans'; text-anchor: start; fill: #f4b46b" x="16.61" y="473.04" transform="rotate(-0 16.61 473.04)">4 of 5 displayed variants reached the 20% drawdown guard; later flat periods represent cash after a risk halt.</text>
  </g>
  <g id="text_20">
   <text style="font-size: 8px; font-family: 'DejaVu Sans'; text-anchor: start; fill: #9fb0c7" x="16.61" y="488.16" transform="rotate(-0 16.61 488.16)">Development evaluation  /  No automatic promotion  /  Source: saved run artifacts</text>
  </g>
 </g>
 <defs>
  <clipPath id="pccf4c2ad92">
   <rect x="46.85" y="97.56" width="734.4" height="327.6"/>
  </clipPath>
 </defs>
</svg>
